<?xml version="1.0" encoding="UTF-8" standalone="no"?>
<svg
   xmlns:dc="http://purl.org/dc/elements/1.1/"
   xmlns:cc="http://creativecommons.org/ns#"
   xmlns:rdf="http://www.w3.org/1999/02/22-rdf-syntax-ns#"
   xmlns:svg="http://www.w3.org/2000/svg"
   xmlns="http://www.w3.org/2000/svg"
   xml:space="preserve"
   height="220.42136"
   width="284.21399"
   version="1.1"
   id="svg4118"><metadata
     id="metadata4124"><rdf:RDF><cc:Work
         rdf:about=""><dc:format>image/svg+xml</dc:format><dc:type
           rdf:resource="http://purl.org/dc/dcmitype/StillImage" /><dc:title></dc:title></cc:Work></rdf:RDF></metadata><defs
     id="defs4122"><clipPath
       id="clipPath4136"
       clipPathUnits="userSpaceOnUse"><path
         id="path4138"
         d="m 0,841.89 595.28,0 L 595.28,0 0,0 0,841.89 z" /></clipPath></defs>
  <path
     d="m 56.053395,36.374366 c 0,0 1.008,-1.068 0.914,0.173 -2.787,9.015 -20.623,68.483004 20.236,86.696004 0,0 12.125,5.076 26.504005,-0.459 4.768,-0.019 -19.140005,20.827 -43.931005,0.75 -25.08,-20.312 -17.336,-73.344004 -3.723,-87.160004"
     style="fill:#40c7f4;fill-opacity:1;fill-rule:nonzero;stroke:none"
     id="letter-l">
     <animateTransform attributeType="xml"
         attributeName="transform"
         type="rotate"
         from="0 100 100"
         to="-360 100 100"
         dur="2.5s"
         keySplines="0.5 0.1 0.5 0.9"
         keyTimes="0;1"
         calcMode="spline"
         repeatCount="indefinite"/>
  </path>
  <path
     d="m 186.2311,117.25717 c 0,0 -8.992,-46.834004 -43.088,-24.354004 -33.769,22.264004 -50.957005,81.305004 -50.957005,109.781004 0,0 16.279005,-75.261 51.330005,-99.663 29.6,-20.608004 42.715,14.236 42.715,14.236"
     style="fill:#ffffff;fill-opacity:1;fill-rule:nonzero;stroke:none"
     id="letter-y">
     <animateTransform attributeType="xml"
         attributeName="transform"
         type="rotate"
         from="0 150 120"
         to="360 150 120"
         dur="3s"
         keySplines="0.5 0.1 0.5 0.9"
         keyTimes="0;1"
         calcMode="spline"
         repeatCount="indefinite"/>
  </path>
  <path
     d="m 62.961595,84.661466 c 0,0 34.096,51.330004 101.912005,51.330004 67.817,0 78.307,-45.710004 71.938,-71.937004 0,0 5.634,61.822004 -72.313,61.822004 -65.568005,0 -101.537005,-41.215004 -101.537005,-41.215004"
     style="fill:#ffffff;fill-opacity:1;fill-rule:nonzero;stroke:none"
     id="letter-n">
     <animateTransform attributeType="xml"
         attributeName="transform"
         type="rotate"
         from="0 150 100"
         to="360 150 100"
         dur="2.2s"
         keySplines="0.5 0.1 0.5 0.9"
         keyTimes="0;1"
         calcMode="spline"
         repeatCount="indefinite"/>
  </path>
  <path
     d="m 157.0046,76.792366 c 0,0 56.951,-3.371 84.678,29.975004 16.722,20.113 -10.117,29.224 -10.117,29.224 0,0 25.015,-18.279 -10.491,-40.090004 -26.226,-16.111 -64.07,-19.109 -64.07,-19.109"
     style="fill:#ffffff;fill-opacity:1;fill-rule:nonzero;stroke:none"
     id="letter-x">
     <animateTransform attributeType="xml"
         attributeName="transform"
         type="rotate"
         from="0 220 120"
         to="360 220 120"
         dur="2s"
         keySplines="0.5 0.1 0.5 0.9"
         keyTimes="0;1"
         calcMode="spline"
         repeatCount="indefinite"/>
  </path>
</svg>
