<?xml version="1.0" encoding="UTF-8" standalone="no"?>
<svg
   xmlns:dc="http://purl.org/dc/elements/1.1/"
   xmlns:cc="http://creativecommons.org/ns#"
   xmlns:rdf="http://www.w3.org/1999/02/22-rdf-syntax-ns#"
   xmlns:svg="http://www.w3.org/2000/svg"
   xmlns="http://www.w3.org/2000/svg"
   xmlns:sodipodi="http://sodipodi.sourceforge.net/DTD/sodipodi-0.dtd"
   xmlns:inkscape="http://www.inkscape.org/namespaces/inkscape"
   xml:space="preserve"
   height="305.82388"
   width="238.89809"
   version="1.1"
   id="svg4118"
   sodipodi:docname="progress-editable.svg"
   inkscape:version="0.92.2 5c3e80d, 2017-08-06"><defs
     id="defs3868" /><sodipodi:namedview
     pagecolor="#ffffff"
     bordercolor="#666666"
     borderopacity="1"
     objecttolerance="10"
     gridtolerance="10"
     guidetolerance="10"
     inkscape:pageopacity="0"
     inkscape:pageshadow="2"
     inkscape:window-width="1189"
     inkscape:window-height="728"
     id="namedview3866"
     showgrid="false"
     fit-margin-top="5"
     fit-margin-left="5"
     fit-margin-bottom="5"
     fit-margin-right="5"
     inkscape:zoom="2.2"
     inkscape:cx="93.654832"
     inkscape:cy="229.53813"
     inkscape:window-x="0"
     inkscape:window-y="0"
     inkscape:window-maximized="0"
     inkscape:current-layer="svg4118" /><metadata
     id="metadata4124"><rdf:RDF><cc:Work
         rdf:about=""><dc:format>image/svg+xml</dc:format><dc:type
           rdf:resource="http://purl.org/dc/dcmitype/StillImage" /><dc:title /></cc:Work></rdf:RDF></metadata><path
     d="m 42.58314,62.056996 c 0,0 1.008,-1.068 0.914,0.173 -2.787,9.015 -20.623,68.483004 20.236,86.696004 0,0 12.125,5.076 26.504005,-0.459 4.768,-0.019 -19.140005,20.827 -43.931005,0.75 -25.08,-20.312 -17.336,-73.344004 -3.723,-87.160004"
     style="fill:#ff00ff;fill-opacity:1;fill-rule:nonzero;stroke:none"
     id="letter-l"
     inkscape:connector-curvature="0" /><path
     d="m 172.76084,142.9398 c 0,0 -8.992,-46.834004 -43.088,-24.354 -33.768995,22.264 -50.957,81.305 -50.957,109.781 0,0 16.279005,-75.261 51.33,-99.663 29.6,-20.608 42.715,14.236 42.715,14.236"
     style="fill:#ff00ff;fill-opacity:1;fill-rule:nonzero;stroke:none"
     id="letter-y"
     inkscape:connector-curvature="0" /><path
     d="m 49.49134,110.3441 c 0,0 34.096,51.33 101.912,51.33 67.817,0 78.307,-45.71 71.938,-71.937004 0,0 5.634,61.822004 -72.313,61.822004 -65.568,0 -101.537,-41.215 -101.537,-41.215"
     style="fill:#ff00ff;fill-opacity:1;fill-rule:nonzero;stroke:none"
     id="letter-n"
     inkscape:connector-curvature="0" /><path
     d="m 143.53434,102.475 c 0,0 56.951,-3.371004 84.678,29.975 16.722,20.113 -10.117,29.224 -10.117,29.224 0,0 25.015,-18.279 -10.491,-40.09 -26.226,-16.111 -64.07,-19.109 -64.07,-19.109"
     style="fill:#ff00ff;fill-opacity:1;fill-rule:nonzero;stroke:none"
     id="letter-x"
     inkscape:connector-curvature="0" /><ellipse
     cx="92.529396"
     cy="104.82796"
     rx="49.879963"
     ry="68.79715"
     transform="matrix(0.98694781,-0.16104042,-0.10650276,0.99431241,0,0)"
     id="disc1"
     style="fill:#000000;fill-opacity:0.5;stroke:none;stroke-width:3.63403392" /><ellipse
     style="fill:#ffffff;fill-opacity:0.5;stroke:none;stroke-width:4.02668285"
     id="clip1"
     transform="matrix(0.98781356,-0.15564183,-0.11024828,0.99390408,0,0)"
     ry="74.957283"
     rx="56.208199"
     cy="92.806229"
     cx="104.84848" /><ellipse
     style="fill:#39bcf3;fill-opacity:1;stroke:none;stroke-width:1.93273854;opacity:0.5"
     id="disc2"
     transform="matrix(0.7974862,0.60333719,-0.72735755,0.6862587,0,0)"
     ry="75.181664"
     rx="98.69677"
     cy="-11.368876"
     cx="151.80875" /><ellipse
     cx="128.60999"
     cy="-15.947892"
     rx="113.6379"
     ry="78.673866"
     transform="matrix(0.80252101,0.59662385,-0.73331522,0.67988881,0,0)"
     id="clip2"
     style="fill:#ffffff;fill-opacity:0.5;stroke:none;stroke-width:1.95266545" /><ellipse
     style="fill:#000000;fill-opacity:0.5;stroke:none;stroke-width:4.09004402"
     id="disc3"
     transform="matrix(0.99734924,0.07276329,-0.21129201,0.97742298,0,0)"
     ry="96.384941"
     rx="45.098854"
     cy="198.7207"
     cx="169.3671" /><ellipse
     cx="173.73088"
     cy="224.48549"
     rx="47.873085"
     ry="113.36237"
     transform="matrix(0.99728172,0.07368289,-0.20875706,0.97796753,0,0)"
     id="clip3"
     style="fill:#ffffff;fill-opacity:0.5;stroke:none;stroke-width:4.47214842" /><ellipse
     style="fill:#000000;fill-opacity:0.5;stroke:none;stroke-width:1.46890008"
     id="disc4"
     transform="matrix(0.98059672,0.19603592,-0.63007083,0.77653767,0,0)"
     ry="44.724014"
     rx="113.12061"
     cy="119.07816"
     cx="198.32487" /><ellipse
     cx="185.12175"
     cy="119.44566"
     rx="113.54774"
     ry="47.304333"
     transform="matrix(0.98038094,0.19711217,-0.58203671,0.81316251,0,0)"
     id="clip4"
     style="fill:#ffffff;fill-opacity:0.5;stroke:none;stroke-width:1.51352882" /></svg>
