<?xml version="1.0" encoding="UTF-8" standalone="no"?>
<!-- Created with Inkscape (http://www.inkscape.org/) -->

<svg
   xmlns:dc="http://purl.org/dc/elements/1.1/"
   xmlns:cc="http://creativecommons.org/ns#"
   xmlns:rdf="http://www.w3.org/1999/02/22-rdf-syntax-ns#"
   xmlns:svg="http://www.w3.org/2000/svg"
   xmlns="http://www.w3.org/2000/svg"
   xmlns:sodipodi="http://sodipodi.sourceforge.net/DTD/sodipodi-0.dtd"
   xmlns:inkscape="http://www.inkscape.org/namespaces/inkscape"
   id="svg4118"
   version="1.1"
   inkscape:version="0.48.4 r9939"
   width="284.21399"
   height="220.42136"
   xml:space="preserve"
   sodipodi:docname="lynx_logo (1).ai"><metadata
     id="metadata4124"><rdf:RDF><cc:Work
         rdf:about=""><dc:format>image/svg+xml</dc:format><dc:type
           rdf:resource="http://purl.org/dc/dcmitype/StillImage" /><dc:title></dc:title></cc:Work></rdf:RDF></metadata><defs
     id="defs4122"><clipPath
       clipPathUnits="userSpaceOnUse"
       id="clipPath4136"><path
         d="m 0,841.89 595.28,0 L 595.28,0 0,0 0,841.89 z"
         id="path4138"
         inkscape:connector-curvature="0" /></clipPath></defs><sodipodi:namedview
     pagecolor="#000000"
     bordercolor="#666666"
     borderopacity="1"
     objecttolerance="10"
     gridtolerance="10"
     guidetolerance="10"
     inkscape:pageopacity="1"
     inkscape:pageshadow="2"
     inkscape:window-width="1238"
     inkscape:window-height="724"
     id="namedview4120"
     showgrid="false"
     fit-margin-top="11"
     fit-margin-left="11"
     fit-margin-right="11"
     fit-margin-bottom="1"
     inkscape:zoom="1.2685909"
     inkscape:cx="193.51461"
     inkscape:cy="71.778134"
     inkscape:window-x="75"
     inkscape:window-y="34"
     inkscape:window-maximized="0"
     inkscape:current-layer="g4126" /><g
     id="g4126"
     inkscape:groupmode="layer"
     inkscape:label="lynx_logo (1)"
     transform="matrix(1.25,0,0,-1.25,-164.80813,648.63985)"><g
       id="g4128"
       transform="translate(140.6465,386.6738)"><path
         d="m 0,0 3.262,17.031 3.455,0 L 3.455,0 0,0 z"
         style="fill:#40c7f4;fill-opacity:1;fill-rule:nonzero;stroke:none"
         id="path4130"
         inkscape:connector-curvature="0" /></g><g
       id="g4132"><g
         id="g4134"
         clip-path="url(#clipPath4136)"><g
           id="g4140"
           transform="translate(156.7383,398.4043)"><path
             d="m 0,0 0.721,-5.109 c 0.166,-1.224 0.287,-2.065 0.383,-2.808 l 0.048,0 c 0.262,0.721 0.528,1.464 1.032,2.735 L 4.318,0 7.965,0 3.766,-8.443 c -1.559,-3.12 -2.95,-5.232 -4.51,-6.694 -1.367,-1.297 -2.998,-1.895 -3.766,-2.015 l -0.767,2.974 c 0.55,0.168 1.318,0.456 1.99,0.911 0.793,0.552 1.465,1.247 1.92,2.039 0.096,0.192 0.096,0.337 0.047,0.577 L -3.623,0 0,0 z"
             style="fill:#40c7f4;fill-opacity:1;fill-rule:nonzero;stroke:none"
             id="path4142"
             inkscape:connector-curvature="0" /></g><g
           id="g4144"
           transform="translate(169.541,386.6738)"><path
             d="m 0,0 1.488,7.916 c 0.313,1.487 0.479,2.759 0.649,3.814 l 3.045,0 -0.215,-1.944 0.049,0 c 1.103,1.512 2.541,2.207 4.101,2.207 1.918,0 3.022,-1.175 3.022,-3.214 0,-0.528 -0.096,-1.391 -0.192,-1.966 L 10.652,0 7.174,0 8.422,6.5 c 0.07,0.407 0.119,0.864 0.119,1.296 0,0.84 -0.287,1.416 -1.176,1.416 -1.127,0 -2.447,-1.416 -2.926,-4.007 L 3.455,0 0,0 z"
             style="fill:#40c7f4;fill-opacity:1;fill-rule:nonzero;stroke:none"
             id="path4146"
             inkscape:connector-curvature="0" /></g><g
           id="g4148"
           transform="translate(192.8027,398.4043)"><path
             d="M 0,0 0.695,-1.752 C 1.057,-2.688 1.271,-3.286 1.441,-3.72 l 0.071,0 c 0.431,0.625 0.744,1.153 1.248,1.872 L 4.055,0 8.014,0 3.072,-5.71 l 2.735,-6.02 -3.791,0 -0.745,1.869 c -0.335,0.84 -0.527,1.44 -0.742,2.135 l -0.072,0 c -0.336,-0.55 -0.648,-1.151 -1.176,-1.966 l -1.416,-2.038 -3.982,0 5.086,6.069 L -3.789,0 0,0 z"
             style="fill:#40c7f4;fill-opacity:1;fill-rule:nonzero;stroke:none"
             id="path4150"
             inkscape:connector-curvature="0" /></g><g
           id="g4152"
           transform="translate(223.7383,395.957)"><path
             d="m 0,0 c -0.266,0.048 -0.576,0.097 -0.936,0.097 -2.23,0 -3.863,-2.736 -3.863,-4.918 0,-1.153 0.457,-1.944 1.416,-1.944 1.031,0 2.303,1.176 2.856,4.054 L 0,0 z m -0.984,-9.283 c 0.023,0.694 0.095,1.486 0.144,2.326 l -0.049,0 c -1.078,-1.943 -2.59,-2.59 -3.957,-2.59 -2.111,0 -3.55,1.63 -3.55,4.077 0,3.959 2.638,8.18 8.396,8.18 1.414,0 2.902,-0.263 3.887,-0.575 L 2.662,-4.006 C 2.375,-5.518 2.135,-7.82 2.182,-9.283 l -3.166,0 z"
             style="fill:#40c7f4;fill-opacity:1;fill-rule:nonzero;stroke:none"
             id="path4154"
             inkscape:connector-curvature="0" /></g><g
           id="g4156"
           transform="translate(233.709,386.6738)"><path
             d="m 0,0 1.486,7.916 c 0.313,1.487 0.481,2.759 0.649,3.814 l 3.047,0 -0.217,-1.944 0.049,0 c 1.103,1.512 2.543,2.207 4.101,2.207 1.92,0 3.024,-1.175 3.024,-3.214 0,-0.528 -0.096,-1.391 -0.194,-1.966 L 10.65,0 7.172,0 8.42,6.5 c 0.072,0.407 0.119,0.864 0.119,1.296 0,0.84 -0.287,1.416 -1.176,1.416 -1.127,0 -2.445,-1.416 -2.925,-4.007 L 3.455,0 0,0 z"
             style="fill:#40c7f4;fill-opacity:1;fill-rule:nonzero;stroke:none"
             id="path4158"
             inkscape:connector-curvature="0" /></g><g
           id="g4160"
           transform="translate(261.1914,395.957)"><path
             d="m 0,0 c -0.264,0.048 -0.574,0.097 -0.934,0.097 -2.232,0 -3.863,-2.736 -3.863,-4.918 0,-1.153 0.455,-1.944 1.416,-1.944 1.031,0 2.303,1.176 2.854,4.054 L 0,0 z m -0.982,-9.283 c 0.023,0.694 0.095,1.486 0.144,2.326 l -0.049,0 c -1.08,-1.943 -2.59,-2.59 -3.959,-2.59 -2.111,0 -3.549,1.63 -3.549,4.077 0,3.959 2.639,8.18 8.395,8.18 1.416,0 2.902,-0.263 3.887,-0.575 L 2.662,-4.006 C 2.375,-5.518 2.137,-7.82 2.184,-9.283 l -3.166,0 z"
             style="fill:#40c7f4;fill-opacity:1;fill-rule:nonzero;stroke:none"
             id="path4162"
             inkscape:connector-curvature="0" /></g><g
           id="g4164"
           transform="translate(271.0684,386.6738)"><path
             d="m 0,0 3.262,17.031 3.455,0 L 3.455,0 0,0 z"
             style="fill:#40c7f4;fill-opacity:1;fill-rule:nonzero;stroke:none"
             id="path4166"
             inkscape:connector-curvature="0" /></g><g
           id="g4168"
           transform="translate(287.1582,398.4043)"><path
             d="M 0,0 0.721,-5.109 C 0.889,-6.333 1.01,-7.174 1.105,-7.917 l 0.047,0 c 0.264,0.721 0.528,1.464 1.032,2.735 L 4.318,0 7.965,0 3.766,-8.443 c -1.559,-3.12 -2.95,-5.232 -4.508,-6.694 -1.367,-1.297 -3,-1.895 -3.766,-2.015 l -0.769,2.974 c 0.552,0.168 1.32,0.456 1.992,0.911 0.791,0.552 1.463,1.247 1.92,2.039 0.094,0.192 0.094,0.337 0.047,0.577 L -3.621,0 0,0 z"
             style="fill:#40c7f4;fill-opacity:1;fill-rule:nonzero;stroke:none"
             id="path4170"
             inkscape:connector-curvature="0" /></g><g
           id="g4172"
           transform="translate(306.7031,401.5947)"><path
             d="m 0,0 -0.6,-3.167 2.518,0 -0.525,-2.64 -2.497,0 -0.791,-3.98 c -0.097,-0.457 -0.191,-1.08 -0.191,-1.488 0,-0.576 0.238,-0.984 1.006,-0.984 0.289,0 0.648,0 0.937,0.048 l -0.384,-2.71 c -0.455,-0.169 -1.321,-0.264 -2.039,-0.264 -2.088,0 -3.071,1.055 -3.071,2.542 0,0.623 0.071,1.272 0.264,2.184 l 0.887,4.652 -1.487,0 0.479,2.64 1.512,0 0.431,2.207 L 0,0 z"
             style="fill:#40c7f4;fill-opacity:1;fill-rule:nonzero;stroke:none"
             id="path4174"
             inkscape:connector-curvature="0" /></g><g
           id="g4176"
           transform="translate(318.0684,399.8682)"><path
             d="m 0,0 c -0.959,0 -1.656,0.671 -1.656,1.678 0,1.176 0.935,1.968 1.992,1.968 1.031,0 1.752,-0.672 1.752,-1.705 C 2.088,0.72 1.152,0 0.049,0 L 0,0 z m -4.365,-13.194 2.23,11.73 3.455,0 -2.232,-11.73 -3.453,0 z"
             style="fill:#40c7f4;fill-opacity:1;fill-rule:nonzero;stroke:none"
             id="path4178"
             inkscape:connector-curvature="0" /></g><g
           id="g4180"
           transform="translate(333.9922,387.0566)"><path
             d="m 0,0 c -0.744,-0.36 -1.943,-0.624 -3.334,-0.624 -2.902,0 -4.943,1.776 -4.943,4.798 0,4.174 3.191,7.436 7.654,7.436 1.006,0 1.869,-0.191 2.398,-0.383 L 0.912,8.564 c -0.408,0.167 -0.889,0.288 -1.584,0.288 -2.447,0 -3.982,-2.087 -3.982,-4.294 0,-1.608 1.031,-2.422 2.302,-2.422 1.008,0 1.729,0.24 2.329,0.479 L 0,0 z"
             style="fill:#40c7f4;fill-opacity:1;fill-rule:nonzero;stroke:none"
             id="path4182"
             inkscape:connector-curvature="0" /></g><g
           id="g4184"
           transform="translate(341.6367,389.7666)"><path
             d="m 0,0 c 0.674,-0.334 1.92,-0.814 3.049,-0.814 0.982,0 1.486,0.48 1.486,1.054 0,0.577 -0.383,0.985 -1.463,1.512 -1.343,0.673 -2.47,1.655 -2.47,3.119 0,2.447 2.134,4.054 5.158,4.054 1.365,0 2.445,-0.287 3.021,-0.6 L 7.941,5.879 C 7.463,6.095 6.621,6.382 5.615,6.382 4.678,6.382 4.08,5.999 4.08,5.352 4.08,4.871 4.559,4.463 5.496,4.008 6.791,3.36 8.135,2.425 8.135,0.793 8.135,-1.894 5.854,-3.356 2.736,-3.334 1.248,-3.31 -0.143,-2.926 -0.84,-2.422 L 0,0 z"
             style="fill:#40c7f4;fill-opacity:1;fill-rule:nonzero;stroke:none"
             id="path4186"
             inkscape:connector-curvature="0" /></g><g
           id="g4188"
           transform="translate(165.4375,461.3975)"><path
             d="m 0,0 c 0,0 34.096,-51.33 101.912,-51.33 67.817,0 78.307,45.71 71.938,71.937 0,0 5.634,-61.822 -72.313,-61.822 C 35.969,-41.215 0,0 0,0"
             style="fill:#ffffff;fill-opacity:1;fill-rule:nonzero;stroke:none"
             id="path4190"
             inkscape:connector-curvature="0" /></g><g
           id="g4192"
           transform="translate(288.707,428.8018)"><path
             d="M 0,0 C 0,0 -8.992,46.834 -43.088,24.354 -76.857,2.09 -94.045,-56.951 -94.045,-85.427 c 0,0 16.279,75.261 51.33,99.663 C -13.115,34.844 0,0 0,0"
             style="fill:#ffffff;fill-opacity:1;fill-rule:nonzero;stroke:none"
             id="path4194"
             inkscape:connector-curvature="0" /></g><g
           id="g4196"
           transform="translate(259.4805,469.2666)"><path
             d="M 0,0 C 0,0 56.951,3.371 84.678,-29.975 101.4,-50.088 74.561,-59.199 74.561,-59.199 c 0,0 25.015,18.279 -10.491,40.09 C 37.844,-2.998 0,0 0,0"
             style="fill:#ffffff;fill-opacity:1;fill-rule:nonzero;stroke:none"
             id="path4198"
             inkscape:connector-curvature="0" /></g><g
           id="g4200"
           transform="translate(158.5293,509.6846)"><path
             d="m 0,0 c 0,0 1.008,1.068 0.914,-0.173 -2.787,-9.015 -20.623,-68.483 20.236,-86.696 0,0 12.125,-5.076 26.504,0.459 4.768,0.019 -19.14,-20.827 -43.931,-0.75 C -21.357,-66.848 -13.613,-13.816 0,0"
             style="fill:#40c7f4;fill-opacity:1;fill-rule:nonzero;stroke:none"
             id="path4202"
             inkscape:connector-curvature="0" /></g></g></g></g></svg>