<svg xmlns="http://www.w3.org/2000/svg" viewBox="5 65 60 60">
    <path
       style="fill:white;stroke:none;"
       d="m 12.430429,71.742617 c 0,0 -6.7879528,5.690084 -6.7842844,23.463853 0.00335,15.57645 7.7109194,21.73365 13.3499724,23.71253 7.26786,2.55077 13.950897,1.19998 17.302751,-3.39203 0,0 -6.8343,3.33008 -15.686213,-0.53803 C 14.687672,112.39987 7.7661078,103.68781 9.4428484,86.91305 10.695279,74.384267 12.430429,71.742617 12.430429,71.742617"
       />
    <path
       d="m 46.002071,67.288869 -17.49379,12.386981 14.811552,2.643215 z m 0.909886,0.162375 -2.682238,15.030196 14.811546,2.643216 z m -18.596028,13.129144 9.427123,32.988792 5.414406,-30.340226 z m 15.751415,2.810941 -5.414405,30.340221 20.255928,-27.691655 z"
       style="fill:white;stroke:none;"
       />
</svg>
