<?xml version="1.0" encoding="UTF-8" standalone="no"?>
<!-- Created with Inkscape (http://www.inkscape.org/) -->

<svg
   xmlns:dc="http://purl.org/dc/elements/1.1/"
   xmlns:cc="http://creativecommons.org/ns#"
   xmlns:rdf="http://www.w3.org/1999/02/22-rdf-syntax-ns#"
   xmlns:svg="http://www.w3.org/2000/svg"
   xmlns="http://www.w3.org/2000/svg"
   xmlns:sodipodi="http://sodipodi.sourceforge.net/DTD/sodipodi-0.dtd"
   xmlns:inkscape="http://www.inkscape.org/namespaces/inkscape"
   width="744.09448819"
   height="1052.3622047"
   id="svg2"
   version="1.1"
   inkscape:version="0.48.4 r9939"
   sodipodi:docname="icons.svg">
  <defs
     id="defs4">
    <inkscape:path-effect
       effect="spiro"
       id="path-effect3850"
       is_visible="true" />
    <inkscape:path-effect
       is_visible="true"
       id="path-effect3800"
       effect="spiro" />
    <inkscape:path-effect
       effect="spiro"
       id="path-effect3028"
       is_visible="true" />
  </defs>
  <sodipodi:namedview
     id="base"
     pagecolor="#ffffff"
     bordercolor="#666666"
     borderopacity="1.0"
     inkscape:pageopacity="0.0"
     inkscape:pageshadow="2"
     inkscape:zoom="1.52"
     inkscape:cx="320.93916"
     inkscape:cy="778.68743"
     inkscape:document-units="px"
     inkscape:current-layer="layer1"
     showgrid="false"
     inkscape:snap-global="true"
     inkscape:window-width="1855"
     inkscape:window-height="1056"
     inkscape:window-x="65"
     inkscape:window-y="24"
     inkscape:window-maximized="1">
    <inkscape:grid
       type="xygrid"
       id="grid2989" />
  </sodipodi:namedview>
  <metadata
     id="metadata7">
    <rdf:RDF>
      <cc:Work
         rdf:about="">
        <dc:format>image/svg+xml</dc:format>
        <dc:type
           rdf:resource="http://purl.org/dc/dcmitype/StillImage" />
      </cc:Work>
    </rdf:RDF>
  </metadata>
  <g
     inkscape:label="Layer 1"
     inkscape:groupmode="layer"
     id="layer1">
    <path
       style="fill:#e6e6e6;fill-opacity:1;fill-rule:evenodd;stroke:#000000;stroke-width:1;stroke-miterlimit:4;stroke-dasharray:none"
       d="m 396.33881,156.937 c 0,22.6092 -18.32838,40.93756 -40.93757,40.93756 -22.60919,0 -40.93756,-18.32836 -40.93756,-40.93756 0,-22.6092 18.32837,-40.93757 40.93756,-40.93757 22.60919,0 40.93757,18.32837 40.93757,40.93757 z"
       id="circle"
       inkscape:label="#circle"
       inkscape:connector-curvature="0" />
    <path
       style="fill:#e6e6e6;stroke:#000000;stroke-width:1;stroke-linecap:butt;stroke-linejoin:miter;stroke-miterlimit:4;stroke-opacity:1;stroke-dasharray:none"
       d="m 315.65181,314.84717 c 3.494,-1.66017 7.20945,-2.82295 10.68493,-4.52155 3.47548,-1.6986 6.79414,-4.03892 8.71635,-7.3959 1.3087,-2.28554 1.90272,-4.97363 1.67899,-7.59781 -8.73868,0.32983 -17.55182,-1.53997 -25.40377,-5.38967 -1.08037,-0.52969 -2.15771,-1.10667 -3.02918,-1.93631 -0.43573,-0.41482 -0.81641,-0.89139 -1.09407,-1.4251 -0.27766,-0.53371 -0.45054,-1.12581 -0.46913,-1.72714 -0.0234,-0.75548 0.19785,-1.50728 0.56633,-2.16722 0.36847,-0.65994 0.87992,-1.2322 1.44928,-1.72931 1.13872,-0.99423 2.50106,-1.69244 3.73215,-2.5697 2.70908,-1.93047 4.73773,-4.70857 6.14511,-7.72272 1.40739,-3.01415 2.22547,-6.26979 2.84196,-9.53871 1.23297,-6.53783 1.74194,-13.37757 4.80644,-19.28284 2.41833,-4.66011 6.35404,-8.47278 10.96339,-10.9865 4.60936,-2.51372 9.86863,-3.75251 15.11814,-3.83977 5.9572,-0.099 11.9675,1.28889 17.14985,4.2285 5.18235,2.93961 9.50303,7.45388 11.97264,12.87597 2.33651,5.12985 2.97322,10.83753 3.9934,16.38134 1.02018,5.54382 2.56617,11.2387 6.29437,15.4666 1.05172,1.19268 2.26219,2.24905 3.20188,3.53186 0.46985,0.6414 0.87023,1.33987 1.12156,2.09419 0.25132,0.75431 0.34979,1.56734 0.21847,2.3515 -0.18758,1.12009 -0.83427,2.12491 -1.64967,2.91541 -0.8154,0.79051 -1.79581,1.38807 -2.78669,1.94299 -7.95353,4.45421 -17.20673,6.55432 -26.30382,5.96992 -0.38136,2.75661 0.15354,5.63214 1.50066,8.06722 2.09395,3.78507 5.94424,6.29058 9.92802,7.97606 3.98378,1.68549 8.22524,2.70243 12.20472,4.39804 3.27899,1.39714 6.38475,3.26854 8.94453,5.74871 2.55978,2.48018 4.55855,5.59133 5.45821,9.04014 0.89966,3.44882 0.64956,7.2374 -0.96478,10.41509 -1.61433,3.17768 -4.64285,5.66929 -8.13861,6.36457 -1.74613,0.34729 -3.54578,0.25634 -5.32404,0.17041 -24.40459,-1.17929 -48.85722,-1.13786 -73.27924,-0.40329 -1.79622,0.054 -3.61517,0.10977 -5.36844,-0.28443 -3.40641,-0.76588 -6.31729,-3.25996 -7.85664,-6.39374 -1.53935,-3.13378 -1.75789,-6.83777 -0.8809,-10.21728 0.87698,-3.37951 2.80184,-6.4384 5.26186,-8.91599 2.46003,-2.4776 5.44218,-4.39513 8.59574,-5.89354"
       id="female" />
    <path
       style="fill:#e6e6e6;stroke:#000000;stroke-width:1;stroke-linecap:butt;stroke-linejoin:miter;stroke-miterlimit:4;stroke-opacity:1;stroke-dasharray:none"
       d="m 434.76519,314.84717 c 3.42497,-1.66045 7.06357,-2.85436 10.46264,-4.56721 3.39906,-1.71286 6.63533,-4.04445 8.52193,-7.35024 1.30523,-2.28708 1.89892,-4.9737 1.67898,-7.59781 -3.56842,-2.8473 -6.33643,-6.68708 -7.90986,-10.97252 -1.25661,-3.42254 -1.75545,-7.121 -1.45049,-10.75416 -1.35157,-0.0739 -2.67288,-0.61843 -3.68408,-1.51826 -0.80494,-0.71629 -1.40778,-1.642 -1.82536,-2.63529 -0.41759,-0.99328 -0.65549,-2.0546 -0.79713,-3.12274 -0.1583,-1.19378 -0.198,-2.41137 -10e-4,-3.59944 0.19663,-1.18808 0.63749,-2.34858 1.37322,-3.30193 0.92004,-1.19217 2.2959,-2.02329 3.77924,-2.28295 -1.80213,-4.22507 -2.06892,-9.08586 -0.74001,-13.48278 1.32891,-4.39691 4.24333,-8.29622 8.08396,-10.81584 4.0843,-2.67948 9.18416,-3.76739 14.00635,-2.98786 0.68296,-1.24929 1.82822,-2.23894 3.16334,-2.73353 1.47096,-0.54491 3.09451,-0.48994 4.65001,-0.2873 6.97434,0.90859 13.51532,4.76983 17.68055,10.43709 4.16522,5.66726 5.89749,13.06272 4.6824,19.99024 1.24588,-0.2914 2.62204,0.0434 3.59484,0.8745 0.87386,0.7466 1.39983,1.8387 1.64342,2.96196 0.24359,1.12325 0.22642,2.28585 0.16428,3.43353 -0.0677,1.25007 -0.18983,2.50956 -0.57728,3.69999 -0.38744,1.19044 -1.06086,2.31777 -2.06439,3.06622 -0.89049,0.66414 -2.02017,1.00016 -3.12887,0.93066 -0.55807,4.01668 -1.76978,7.94182 -3.57301,11.57411 -2.04414,4.11756 -4.84919,7.85585 -8.23111,10.96959 -0.38288,2.75656 0.15215,5.63273 1.50066,8.06722 1.0636,1.92013 2.60796,3.54943 4.36553,4.86438 1.75758,1.31495 3.72712,2.32542 5.75724,3.16015 4.06023,1.66948 8.37786,2.65261 12.42668,4.34957 3.29196,1.37974 6.40942,3.24464 8.97652,5.7247 2.56709,2.48006 4.56847,5.59733 5.46558,9.05217 0.89711,3.45483 0.63942,7.24882 -0.98297,10.42822 -1.62238,3.17939 -4.65854,5.66916 -8.15978,6.36342 -1.7463,0.34627 -3.54579,0.25588 -5.32404,0.17041 -24.4049,-1.17299 -48.85747,-1.1466 -73.27923,-0.40329 -1.79625,0.0547 -3.61544,0.11116 -5.36844,-0.28443 -3.3995,-0.76715 -6.30059,-3.26366 -7.82955,-6.39534 -1.52896,-3.13168 -1.73761,-6.82887 -0.85715,-10.20081 0.88046,-3.37193 2.80228,-6.42307 5.25303,-8.90076 2.45075,-2.4777 5.41783,-4.40334 8.55372,-5.92364"
       id="male" />
    <text
       xml:space="preserve"
       style="font-size:20px;font-style:normal;font-variant:normal;font-weight:normal;font-stretch:normal;line-height:125%;letter-spacing:0px;word-spacing:0px;fill:#000000;fill-opacity:1;stroke:none;font-family:Atavyros;-inkscape-font-specification:Atavyros"
       x="34.090904"
       y="40.998539"
       id="text3802"
       sodipodi:linespacing="125%"><tspan
         sodipodi:role="line"
         x="34.090904"
         y="40.998539"
         style="font-size:18px;font-style:normal;font-variant:normal;font-weight:normal;font-stretch:normal;font-family:Droid Sans;-inkscape-font-specification:Droid Sans"
         id="tspan3806">The default icon is #circle. The other icons will be sized relative to #circle.</tspan><tspan
         sodipodi:role="line"
         x="34.090904"
         y="63.498539"
         style="font-size:18px;font-style:normal;font-variant:normal;font-weight:normal;font-stretch:normal;font-family:Droid Sans;-inkscape-font-specification:Droid Sans"
         id="tspan3810">The icons can be any kind of objects, but color will only be applied to simple objects.</tspan><tspan
         sodipodi:role="line"
         x="34.090904"
         y="85.998543"
         style="font-size:18px;font-style:normal;font-variant:normal;font-weight:normal;font-stretch:normal;font-family:Droid Sans;-inkscape-font-specification:Droid Sans"
         id="tspan3812">The icons are found by their ID attribute. Be sure to set it.</tspan></text>
    <text
       sodipodi:linespacing="125%"
       id="text3831"
       y="158.99854"
       x="34.090904"
       style="font-size:20px;font-style:normal;font-variant:normal;font-weight:normal;font-stretch:normal;line-height:125%;letter-spacing:0px;word-spacing:0px;fill:#000000;fill-opacity:1;stroke:none;font-family:Atavyros;-inkscape-font-specification:Atavyros"
       xml:space="preserve"><tspan
         id="tspan3837"
         style="font-size:18px;font-style:normal;font-variant:normal;font-weight:normal;font-stretch:normal;font-family:Droid Sans;-inkscape-font-specification:Droid Sans"
         y="158.99854"
         x="34.090904"
         sodipodi:role="line">circle, square, hexagon</tspan></text>
    <text
       xml:space="preserve"
       style="font-size:20px;font-style:normal;font-variant:normal;font-weight:normal;font-stretch:normal;line-height:125%;letter-spacing:0px;word-spacing:0px;fill:#000000;fill-opacity:1;stroke:none;font-family:Atavyros;-inkscape-font-specification:Atavyros"
       x="34.090904"
       y="298.99854"
       id="text3844"
       sodipodi:linespacing="125%"><tspan
         sodipodi:role="line"
         x="34.090904"
         y="298.99854"
         style="font-size:18px;font-style:normal;font-variant:normal;font-weight:normal;font-stretch:normal;font-family:Droid Sans;-inkscape-font-specification:Droid Sans"
         id="tspan3846">female, male and person</tspan></text>
    <path
       style="fill:#e6e6e6;stroke:#000000;stroke-width:1;stroke-linecap:butt;stroke-linejoin:miter;stroke-miterlimit:4;stroke-opacity:1;stroke-dasharray:none"
       d="m 554.76519,314.84717 c 3.42497,-1.66045 7.06357,-2.85436 10.46264,-4.56721 3.39906,-1.71286 6.63533,-4.04445 8.52193,-7.35024 1.30523,-2.28708 1.89892,-4.9737 1.67898,-7.59781 -8.6117,-7.89025 -14.12788,-19.07409 -15.1467,-30.70936 -0.76747,-8.7647 1.04371,-17.89171 5.94209,-25.20025 2.44919,-3.65427 5.64579,-6.82111 9.39122,-9.1285 3.74542,-2.30739 8.04099,-3.74354 12.43098,-4.02675 4.91625,-0.31716 9.8971,0.82089 14.26196,3.1052 4.36485,2.28432 8.11298,5.69576 10.927,9.73945 5.62803,8.08737 7.37013,18.5128 5.84215,28.24654 -1.6422,10.46132 -6.96131,20.30828 -14.81005,27.41696 -0.38288,2.75656 0.15215,5.63273 1.50066,8.06722 1.0636,1.92013 2.60796,3.54943 4.36553,4.86438 1.75758,1.31495 3.72712,2.32542 5.75724,3.16015 4.06023,1.66948 8.37786,2.65261 12.42668,4.34957 3.29196,1.37974 6.40942,3.24464 8.97652,5.7247 2.56709,2.48006 4.56847,5.59733 5.46558,9.05217 0.89711,3.45483 0.63942,7.24882 -0.98297,10.42822 -1.62238,3.17939 -4.65854,5.66916 -8.15978,6.36342 -1.7463,0.34627 -3.54579,0.25588 -5.32404,0.17041 -24.4049,-1.17299 -48.85747,-1.1466 -73.27923,-0.40329 -1.79625,0.0547 -3.61544,0.11116 -5.36844,-0.28443 -3.3995,-0.76715 -6.30059,-3.26366 -7.82955,-6.39534 -1.52896,-3.13168 -1.73761,-6.82887 -0.85715,-10.20081 0.88046,-3.37193 2.80228,-6.42307 5.25303,-8.90076 2.45075,-2.4777 5.41783,-4.40334 8.55372,-5.92364"
       id="person" />
    <rect
       style="fill:#e6e6e6;fill-opacity:1;fill-rule:evenodd;stroke:#000000;stroke-width:1;stroke-linecap:round;stroke-linejoin:round;stroke-miterlimit:4;stroke-opacity:1;stroke-dasharray:none"
       id="square"
       width="68.421051"
       height="68.421051"
       x="434.21051"
       y="123.41482"
       inkscape:label="#square" />
    <path
       style="fill:#e6e6e6;fill-opacity:1;fill-rule:evenodd;stroke:#000000;stroke-width:1;stroke-linecap:round;stroke-linejoin:round;stroke-miterlimit:4;stroke-opacity:1"
       d="m 602.3919,196.17578 -44.77899,0.4586 -22.78664,-38.55045 21.99234,-39.00904 44.77899,-0.45859 22.78664,38.55044 z"
       id="hexagon"
       inkscape:connector-curvature="0" />
  </g>
</svg>
