<?xml version="1.0" encoding="UTF-8" standalone="no"?>
<!-- Created with Inkscape (http://www.inkscape.org/) -->

<svg
   xmlns:dc="http://purl.org/dc/elements/1.1/"
   xmlns:cc="http://creativecommons.org/ns#"
   xmlns:rdf="http://www.w3.org/1999/02/22-rdf-syntax-ns#"
   xmlns:svg="http://www.w3.org/2000/svg"
   xmlns="http://www.w3.org/2000/svg"
   xmlns:inkscape="http://www.inkscape.org/namespaces/inkscape"
   version="1.1"
   width="255.99998"
   height="312.28571"
   id="svg2">
  <metadata
     id="metadata7">
    <rdf:RDF>
      <cc:Work
         rdf:about="">
        <dc:format>image/svg+xml</dc:format>
        <dc:type
           rdf:resource="http://purl.org/dc/dcmitype/StillImage" />
        <dc:title></dc:title>
      </cc:Work>
    </rdf:RDF>
  </metadata>
  <g
     transform="translate(-117.14287,-351.50504)"
     id="layer1">
    <path
       d="m 324.55702,582.27443 18.92566,-58.1057 -49.2316,4.98203 z"
       id="path3963"
       style="fill:#ffffff;fill-rule:evenodd;stroke:none" />
    <path
       d="m 159.94297,579.03427 -22.67759,-59.98167 60.4874,10.60994 z"
       id="path3961"
       style="fill:#ffffff;fill-rule:evenodd;stroke:none" />
    <path
       d="m 221.64841,560.04473 -26.554,-29.96615 60.69487,0 z"
       id="path3957"
       style="fill:#ffffff;fill-rule:evenodd;stroke:none" />
    <path
       d="m 119.14287,659.05962 41.74845,-98.03589 22.71908,69.88401 z m 166.8901,-28.15188 39.85176,-66.14441 35.25813,90.36705 z"
       id="path3009"
       style="fill:#ffffff;fill-rule:evenodd;stroke:none" />
    <path
       d="m 266.75465,560.04473 26.55401,-29.96615 -60.69487,0 z"
       id="path3965"
       style="fill:#ffffff;fill-rule:evenodd;stroke:none" />
    <path
       d="m 214.14454,599.48943 -26.55401,29.96615 60.69487,0 z"
       id="path3967"
       style="fill:#ffffff;fill-rule:evenodd;stroke:none" />
    <path
       d="m 259.25078,599.48943 26.554,29.96615 -60.69487,0 z"
       id="path3969"
       style="fill:#ffffff;fill-rule:evenodd;stroke:none" />
    <path
       d="m 314.58066,428.44498 25.15008,-67.48555 -45.47966,40.64709 z"
       id="path3981"
       style="fill:#ffffff;fill-rule:evenodd;stroke:none" />
    <path
       d="m 169.32363,428.44498 -25.15007,-67.48555 45.47966,40.64709 z"
       id="path3983"
       style="fill:#ffffff;fill-rule:evenodd;stroke:none" />
  </g>
</svg>
