<?xml version="1.0" encoding="UTF-8" standalone="no"?>
<!-- Created with Inkscape (http://www.inkscape.org/) -->

<svg
   xmlns:dc="http://purl.org/dc/elements/1.1/"
   xmlns:cc="http://creativecommons.org/ns#"
   xmlns:rdf="http://www.w3.org/1999/02/22-rdf-syntax-ns#"
   xmlns:svg="http://www.w3.org/2000/svg"
   xmlns="http://www.w3.org/2000/svg"
   xmlns:sodipodi="http://sodipodi.sourceforge.net/DTD/sodipodi-0.dtd"
   xmlns:inkscape="http://www.inkscape.org/namespaces/inkscape"
   width="744.09448819"
   height="1052.3622047"
   id="svg2"
   version="1.1"
   inkscape:version="0.48.4 r9939"
   sodipodi:docname="icons.svg">
  <sodipodi:namedview
     id="base"
     pagecolor="#ffffff"
     bordercolor="#666666"
     borderopacity="1.0"
     inkscape:pageopacity="0.0"
     inkscape:pageshadow="2"
     inkscape:zoom="1.42"
     inkscape:cx="341.66284"
     inkscape:cy="654.09003"
     inkscape:document-units="px"
     inkscape:current-layer="layer1"
     showgrid="true"
     inkscape:snap-global="true"
     inkscape:window-width="1855"
     inkscape:window-height="1056"
     inkscape:window-x="65"
     inkscape:window-y="24"
     inkscape:window-maximized="1"
     showguides="true"
     inkscape:guide-bbox="true">
    <inkscape:grid
       type="xygrid"
       id="grid2989" />
  </sodipodi:namedview>
  <metadata
     id="metadata7">
    <rdf:RDF>
      <cc:Work
         rdf:about="">
        <dc:format>image/svg+xml</dc:format>
        <dc:type
           rdf:resource="http://purl.org/dc/dcmitype/StillImage" />
      </cc:Work>
    </rdf:RDF>
  </metadata>
  <g
     inkscape:label="Layer 1"
     inkscape:groupmode="layer"
     id="layer1">
    <path
       style="fill:#e6e6e6;fill-opacity:1;fill-rule:evenodd;stroke:#000000;stroke-width:1;stroke-miterlimit:4;stroke-dasharray:none"
       d="m 396.33881,156.937 c 0,22.6092 -18.32838,40.93756 -40.93757,40.93756 -22.60919,0 -40.93756,-18.32836 -40.93756,-40.93756 0,-22.6092 18.32837,-40.93757 40.93756,-40.93757 22.60919,0 40.93757,18.32837 40.93757,40.93757 z"
       id="circle"
       inkscape:label="#circle"
       inkscape:connector-curvature="0" />
    <path
       style="fill:#e6e6e6;stroke:#000000;stroke-width:1;stroke-linecap:butt;stroke-linejoin:miter;stroke-miterlimit:4;stroke-opacity:1;stroke-dasharray:none"
       d="m 315.65181,433.92612 c 3.494,-1.66017 7.20945,-2.82295 10.68493,-4.52155 3.47548,-1.6986 6.79414,-4.03892 8.71635,-7.3959 1.3087,-2.28554 1.90272,-4.97363 1.67899,-7.59781 -8.73868,0.32983 -17.55182,-1.53997 -25.40377,-5.38967 -1.08037,-0.52969 -2.15771,-1.10667 -3.02918,-1.93631 -0.43573,-0.41482 -0.81641,-0.89139 -1.09407,-1.4251 -0.27766,-0.53371 -0.45054,-1.12581 -0.46913,-1.72714 -0.0234,-0.75548 0.19785,-1.50728 0.56633,-2.16722 0.36847,-0.65994 0.87992,-1.2322 1.44928,-1.72931 1.13872,-0.99423 2.50106,-1.69244 3.73215,-2.5697 2.70908,-1.93047 4.73773,-4.70857 6.14511,-7.72272 1.40739,-3.01415 2.22547,-6.26979 2.84196,-9.53871 1.23297,-6.53783 1.74194,-13.37757 4.80644,-19.28284 2.41833,-4.66011 6.35404,-8.47278 10.96339,-10.9865 4.60936,-2.51372 9.86863,-3.75251 15.11814,-3.83977 5.9572,-0.099 11.9675,1.28889 17.14985,4.2285 5.18235,2.93961 9.50303,7.45388 11.97264,12.87597 2.33651,5.12985 2.97322,10.83753 3.9934,16.38134 1.02018,5.54382 2.56617,11.2387 6.29437,15.4666 1.05172,1.19268 2.26219,2.24905 3.20188,3.53186 0.46985,0.6414 0.87023,1.33987 1.12156,2.09419 0.25132,0.75431 0.34979,1.56734 0.21847,2.3515 -0.18758,1.12009 -0.83427,2.12491 -1.64967,2.91541 -0.8154,0.79051 -1.79581,1.38807 -2.78669,1.94299 -7.95353,4.45421 -17.20673,6.55432 -26.30382,5.96992 -0.38136,2.75661 0.15354,5.63214 1.50066,8.06722 2.09395,3.78507 5.94424,6.29058 9.92802,7.97606 3.98378,1.68549 8.22524,2.70243 12.20472,4.39804 3.27899,1.39714 6.38475,3.26854 8.94453,5.74871 2.55978,2.48018 4.55855,5.59133 5.45821,9.04014 0.89966,3.44882 0.64956,7.2374 -0.96478,10.41509 -1.61433,3.17768 -4.64285,5.66929 -8.13861,6.36457 -1.74613,0.34729 -3.54578,0.25634 -5.32404,0.17041 -24.40459,-1.17929 -48.85722,-1.13786 -73.27924,-0.40329 -1.79622,0.054 -3.61517,0.10977 -5.36844,-0.28443 -3.40641,-0.76588 -6.31729,-3.25996 -7.85664,-6.39374 -1.53935,-3.13378 -1.75789,-6.83777 -0.8809,-10.21728 0.87698,-3.37951 2.80184,-6.4384 5.26186,-8.91599 2.46003,-2.4776 5.44218,-4.39513 8.59574,-5.89354"
       id="female"
       inkscape:connector-curvature="0" />
    <path
       style="fill:#e6e6e6;stroke:#000000;stroke-width:1;stroke-linecap:butt;stroke-linejoin:miter;stroke-miterlimit:4;stroke-opacity:1;stroke-dasharray:none"
       d="m 434.76519,433.92612 c 3.42497,-1.66045 7.06357,-2.85436 10.46264,-4.56721 3.39906,-1.71286 6.63533,-4.04445 8.52193,-7.35024 1.30523,-2.28708 1.89892,-4.9737 1.67898,-7.59781 -3.56842,-2.8473 -6.33643,-6.68708 -7.90986,-10.97252 -1.25661,-3.42254 -1.75545,-7.121 -1.45049,-10.75416 -1.35157,-0.0739 -2.67288,-0.61843 -3.68408,-1.51826 -0.80494,-0.71629 -1.40778,-1.642 -1.82536,-2.63529 -0.41759,-0.99328 -0.65549,-2.0546 -0.79713,-3.12274 -0.1583,-1.19378 -0.198,-2.41137 -10e-4,-3.59944 0.19663,-1.18808 0.63749,-2.34858 1.37322,-3.30193 0.92004,-1.19217 2.2959,-2.02329 3.77924,-2.28295 -1.80213,-4.22507 -2.06892,-9.08586 -0.74001,-13.48278 1.32891,-4.39691 4.24333,-8.29622 8.08396,-10.81584 4.0843,-2.67948 9.18416,-3.76739 14.00635,-2.98786 0.68296,-1.24929 1.82822,-2.23894 3.16334,-2.73353 1.47096,-0.54491 3.09451,-0.48994 4.65001,-0.2873 6.97434,0.90859 13.51532,4.76983 17.68055,10.43709 4.16522,5.66726 5.89749,13.06272 4.6824,19.99024 1.24588,-0.2914 2.62204,0.0434 3.59484,0.8745 0.87386,0.7466 1.39983,1.8387 1.64342,2.96196 0.24359,1.12325 0.22642,2.28585 0.16428,3.43353 -0.0677,1.25007 -0.18983,2.50956 -0.57728,3.69999 -0.38744,1.19044 -1.06086,2.31777 -2.06439,3.06622 -0.89049,0.66414 -2.02017,1.00016 -3.12887,0.93066 -0.55807,4.01668 -1.76978,7.94182 -3.57301,11.57411 -2.04414,4.11756 -4.84919,7.85585 -8.23111,10.96959 -0.38288,2.75656 0.15215,5.63273 1.50066,8.06722 1.0636,1.92013 2.60796,3.54943 4.36553,4.86438 1.75758,1.31495 3.72712,2.32542 5.75724,3.16015 4.06023,1.66948 8.37786,2.65261 12.42668,4.34957 3.29196,1.37974 6.40942,3.24464 8.97652,5.7247 2.56709,2.48006 4.56847,5.59733 5.46558,9.05217 0.89711,3.45483 0.63942,7.24882 -0.98297,10.42822 -1.62238,3.17939 -4.65854,5.66916 -8.15978,6.36342 -1.7463,0.34627 -3.54579,0.25588 -5.32404,0.17041 -24.4049,-1.17299 -48.85747,-1.1466 -73.27923,-0.40329 -1.79625,0.0547 -3.61544,0.11116 -5.36844,-0.28443 -3.3995,-0.76715 -6.30059,-3.26366 -7.82955,-6.39534 -1.52896,-3.13168 -1.73761,-6.82887 -0.85715,-10.20081 0.88046,-3.37193 2.80228,-6.42307 5.25303,-8.90076 2.45075,-2.4777 5.41783,-4.40334 8.55372,-5.92364"
       id="male"
       inkscape:connector-curvature="0" />
    <text
       xml:space="preserve"
       style="font-size:20px;font-style:normal;font-variant:normal;font-weight:normal;font-stretch:normal;line-height:125%;letter-spacing:0px;word-spacing:0px;fill:#000000;fill-opacity:1;stroke:none;font-family:Atavyros;-inkscape-font-specification:Atavyros"
       x="34.090904"
       y="40.998539"
       id="text3802"
       sodipodi:linespacing="125%"><tspan
         sodipodi:role="line"
         x="34.090904"
         y="40.998539"
         style="font-size:18px;font-style:normal;font-variant:normal;font-weight:normal;font-stretch:normal;font-family:Droid Sans;-inkscape-font-specification:Droid Sans"
         id="tspan3806">The default icon is #circle. The other icons will be sized relative to #circle.</tspan><tspan
         sodipodi:role="line"
         x="34.090904"
         y="63.498539"
         style="font-size:18px;font-style:normal;font-variant:normal;font-weight:normal;font-stretch:normal;font-family:Droid Sans;-inkscape-font-specification:Droid Sans"
         id="tspan3810">The icons can be any kind of objects, but color will only be applied to simple objects.</tspan><tspan
         sodipodi:role="line"
         x="34.090904"
         y="85.998543"
         style="font-size:18px;font-style:normal;font-variant:normal;font-weight:normal;font-stretch:normal;font-family:Droid Sans;-inkscape-font-specification:Droid Sans"
         id="tspan3812">The icons are found by their ID attribute. Be sure to set it.</tspan></text>
    <text
       sodipodi:linespacing="125%"
       id="text3831"
       y="158.99854"
       x="34.090904"
       style="font-size:20px;font-style:normal;font-variant:normal;font-weight:normal;font-stretch:normal;line-height:125%;letter-spacing:0px;word-spacing:0px;fill:#000000;fill-opacity:1;stroke:none;font-family:Atavyros;-inkscape-font-specification:Atavyros"
       xml:space="preserve"><tspan
         id="tspan3837"
         style="font-size:18px;font-style:normal;font-variant:normal;font-weight:normal;font-stretch:normal;font-family:Droid Sans;-inkscape-font-specification:Droid Sans"
         y="158.99854"
         x="34.090904"
         sodipodi:role="line">circle, square, hexagon</tspan></text>
    <text
       xml:space="preserve"
       style="font-size:20px;font-style:normal;font-variant:normal;font-weight:normal;font-stretch:normal;line-height:125%;letter-spacing:0px;word-spacing:0px;fill:#000000;fill-opacity:1;stroke:none;font-family:Atavyros;-inkscape-font-specification:Atavyros"
       x="34.090904"
       y="418.07748"
       id="text3844"
       sodipodi:linespacing="125%"><tspan
         sodipodi:role="line"
         x="34.090904"
         y="418.07748"
         style="font-size:18px;font-style:normal;font-variant:normal;font-weight:normal;font-stretch:normal;font-family:Droid Sans;-inkscape-font-specification:Droid Sans"
         id="tspan3846">female, male, person</tspan></text>
    <path
       style="fill:#e6e6e6;stroke:#000000;stroke-width:1;stroke-linecap:butt;stroke-linejoin:miter;stroke-miterlimit:4;stroke-opacity:1;stroke-dasharray:none"
       d="m 554.76519,433.92612 c 3.42497,-1.66045 7.06357,-2.85436 10.46264,-4.56721 3.39906,-1.71286 6.63533,-4.04445 8.52193,-7.35024 1.30523,-2.28708 1.89892,-4.9737 1.67898,-7.59781 -8.6117,-7.89025 -14.12788,-19.07409 -15.1467,-30.70936 -0.76747,-8.7647 1.04371,-17.89171 5.94209,-25.20025 2.44919,-3.65427 5.64579,-6.82111 9.39122,-9.1285 3.74542,-2.30739 8.04099,-3.74354 12.43098,-4.02675 4.91625,-0.31716 9.8971,0.82089 14.26196,3.1052 4.36485,2.28432 8.11298,5.69576 10.927,9.73945 5.62803,8.08737 7.37013,18.5128 5.84215,28.24654 -1.6422,10.46132 -6.96131,20.30828 -14.81005,27.41696 -0.38288,2.75656 0.15215,5.63273 1.50066,8.06722 1.0636,1.92013 2.60796,3.54943 4.36553,4.86438 1.75758,1.31495 3.72712,2.32542 5.75724,3.16015 4.06023,1.66948 8.37786,2.65261 12.42668,4.34957 3.29196,1.37974 6.40942,3.24464 8.97652,5.7247 2.56709,2.48006 4.56847,5.59733 5.46558,9.05217 0.89711,3.45483 0.63942,7.24882 -0.98297,10.42822 -1.62238,3.17939 -4.65854,5.66916 -8.15978,6.36342 -1.7463,0.34627 -3.54579,0.25588 -5.32404,0.17041 -24.4049,-1.17299 -48.85747,-1.1466 -73.27923,-0.40329 -1.79625,0.0547 -3.61544,0.11116 -5.36844,-0.28443 -3.3995,-0.76715 -6.30059,-3.26366 -7.82955,-6.39534 -1.52896,-3.13168 -1.73761,-6.82887 -0.85715,-10.20081 0.88046,-3.37193 2.80228,-6.42307 5.25303,-8.90076 2.45075,-2.4777 5.41783,-4.40334 8.55372,-5.92364"
       id="person"
       inkscape:connector-curvature="0" />
    <rect
       style="fill:#e6e6e6;fill-opacity:1;fill-rule:evenodd;stroke:#000000;stroke-width:1;stroke-linecap:round;stroke-linejoin:round;stroke-miterlimit:4;stroke-opacity:1;stroke-dasharray:none"
       id="square"
       width="74.905228"
       height="74.905228"
       x="429.67896"
       y="120.88326"
       inkscape:label="#square" />
    <path
       id="phone"
       style="fill:#e6e6e6;fill-opacity:1;fill-rule:evenodd;stroke:#000000;stroke-width:1;stroke-linecap:round;stroke-linejoin:round;stroke-miterlimit:4;stroke-opacity:1;stroke-dasharray:none"
       d="m 312.33366,516.748 61.59278,0 c 2.46581,0 4.45092,1.98512 4.45092,4.45093 l 0,104.43181 c 0,2.46581 -1.98511,4.45092 -4.45092,4.45092 l -61.59278,0 c -2.46581,0 -4.45092,-1.98511 -4.45092,-4.45092 l 0,-104.43181 c 0,-2.46581 1.98511,-4.45093 4.45092,-4.45093 z m 34.78747,104.6574 c 0,2.69537 -2.18503,4.88039 -4.8804,4.88039 -2.69537,0 -4.8804,-2.18502 -4.8804,-4.88039 0,-2.69537 2.18503,-4.88039 4.8804,-4.88039 2.69537,0 4.8804,2.18502 4.8804,4.88039 z m -15.18808,0 c 0,1.59071 -1.28952,2.88023 -2.88023,2.88023 -1.59071,0 -2.88023,-1.28952 -2.88023,-2.88023 0,-1.59071 1.28952,-2.88023 2.88023,-2.88023 1.59071,0 2.88023,1.28952 2.88023,2.88023 z m 26.37583,0 c 0,1.59071 -1.28952,2.88023 -2.88023,2.88023 -1.59071,0 -2.88023,-1.28952 -2.88023,-2.88023 0,-1.59071 1.28952,-2.88023 2.88023,-2.88023 1.59071,0 2.88023,1.28952 2.88023,2.88023 z"
       inkscape:connector-curvature="0" />
    <path
       id="home"
       style="opacity:0.98000004;fill:#e6e6e6;fill-opacity:1;fill-rule:evenodd;stroke:#000000;stroke-width:1;stroke-linecap:round;stroke-linejoin:round;stroke-miterlimit:4;stroke-opacity:1;stroke-dasharray:none"
       d="m 457.18599,583.53252 8.71283,0 0,8.71282 -8.71283,0 z m -11.09358,0 8.71283,0 0,8.71282 -8.71283,0 z m 11.09358,-11.09359 8.71283,0 0,8.71283 -8.71283,0 z m -11.09358,0 8.71283,0 0,8.71283 -8.71283,0 z m 19.66026,-48.83031 -48.15886,48.18775 14.0981,0 0,49.61476 68.12153,0 0,-49.61476 14.12698,0 -26.17392,-26.17392 0,-19.87601 -8.06018,0 0,11.81583 z"
       inkscape:connector-curvature="0"
       sodipodi:nodetypes="cccccccccccccccccccccccccccccccc" />
    <text
       sodipodi:linespacing="125%"
       id="text3904"
       y="578.07745"
       x="34.090904"
       style="font-size:20px;font-style:normal;font-variant:normal;font-weight:normal;font-stretch:normal;line-height:125%;letter-spacing:0px;word-spacing:0px;fill:#000000;fill-opacity:1;stroke:none;font-family:Atavyros;-inkscape-font-specification:Atavyros"
       xml:space="preserve"><tspan
         style="font-size:18px;font-style:normal;font-variant:normal;font-weight:normal;font-stretch:normal;font-family:Droid Sans;-inkscape-font-specification:Droid Sans"
         y="578.07745"
         x="34.090904"
         sodipodi:role="line"
         id="tspan4019">phone, home, radio</tspan></text>
    <text
       xml:space="preserve"
       style="font-size:20px;font-style:normal;font-variant:normal;font-weight:normal;font-stretch:normal;line-height:125%;letter-spacing:0px;word-spacing:0px;fill:#000000;fill-opacity:1;stroke:none;font-family:Atavyros;-inkscape-font-specification:Atavyros"
       x="34.090904"
       y="276.99854"
       id="text3118"
       sodipodi:linespacing="125%"><tspan
         sodipodi:role="line"
         x="34.090904"
         y="276.99854"
         style="font-size:18px;font-style:normal;font-variant:normal;font-weight:normal;font-stretch:normal;font-family:Droid Sans;-inkscape-font-specification:Droid Sans"
         id="tspan3120">triangle, pentagon, star</tspan></text>
    <path
       id="radio"
       style="font-size:medium;font-style:normal;font-variant:normal;font-weight:normal;font-stretch:normal;text-indent:0;text-align:start;text-decoration:none;line-height:normal;letter-spacing:normal;word-spacing:normal;text-transform:none;direction:ltr;block-progression:tb;writing-mode:lr-tb;text-anchor:start;baseline-shift:baseline;color:#000000;fill:#e6e6e6;fill-opacity:1;stroke:#000000;stroke-width:1;stroke-miterlimit:4;stroke-dasharray:none;marker:none;display:inline;enable-background:accumulate;font-family:Sans;-inkscape-font-specification:Sans"
       d="m 580.01585,538.68977 c -3.89355,0 -7.11449,3.22093 -7.11449,7.11449 0,2.86317 1.75107,5.33039 4.22009,6.45165 -0.0335,18.1357 -0.25383,33.84768 -2.54089,46.04533 -2.57269,13.72103 -7.46292,23.39489 -17.34433,29.98249 -1.17123,0.79331 -1.57035,2.53525 -0.86137,3.75935 0.70899,1.22411 2.41856,1.74474 3.68949,1.12358 l 19.9515,-9.9868 19.95151,9.9868 c 1.27092,0.62116 2.98049,0.10053 3.68948,-1.12358 0.70898,-1.2241 0.30986,-2.96604 -0.86136,-3.75935 -9.88141,-6.5876 -14.77164,-16.26146 -17.34434,-29.98249 -2.28705,-12.19765 -2.50739,-27.90963 -2.54089,-46.04533 2.46902,-1.12126 4.22009,-3.58848 4.22009,-6.45165 0,-3.89356 -3.22094,-7.11449 -7.11449,-7.11449 z m -20.3713,-41.09612 c -18.76399,7.95488 -31.94892,26.57109 -31.94892,48.21061 0,21.63627 13.18943,40.23164 31.94892,48.18852 1.02498,-1.56991 1.99394,-3.20669 2.9165,-4.90502 -17.1373,-6.9003 -29.20918,-23.65249 -29.20918,-43.2835 0,-19.631 12.07188,-36.3832 29.20918,-43.2835 -0.92528,-1.70441 -1.8881,-3.35198 -2.9165,-4.92711 z m 40.7426,0 c -1.0284,1.57513 -1.99122,3.2227 -2.91649,4.92711 17.13729,6.9003 29.20918,23.6525 29.20918,43.2835 0,19.63101 -12.07189,36.3832 -29.20918,43.2835 0.92255,1.69833 1.89151,3.33511 2.91649,4.90502 18.75949,-7.95688 31.94893,-26.55225 31.94893,-48.18852 0,-21.63952 -13.18494,-40.25573 -31.94893,-48.21061 z m -34.15839,12.61606 c -14.25949,5.53998 -24.39253,19.40053 -24.39253,35.59455 0,16.18674 10.12107,30.04958 24.37044,35.59454 0.70283,-1.71857 1.36498,-3.47365 1.96643,-5.28063 -12.12177,-4.72269 -20.68063,-16.49749 -20.68063,-30.31391 0,-13.81642 8.55886,-25.59122 20.68063,-30.31392 -0.60017,-1.80459 -1.24306,-3.56413 -1.94434,-5.28063 z m 27.57418,0 c -0.70128,1.7165 -1.34417,3.47604 -1.94434,5.28063 12.12177,4.7227 20.68063,16.4975 20.68063,30.31392 0,13.81642 -8.55886,25.59122 -20.68063,30.31391 0.60145,1.80698 1.2636,3.56206 1.96643,5.28063 14.24937,-5.54496 24.37044,-19.4078 24.37044,-35.59454 0,-16.19402 -10.13304,-30.05457 -24.39253,-35.59455 z m -23.332,13.54405 c -8.5167,3.70409 -14.49411,12.19552 -14.49411,22.0505 0,9.85498 5.97741,18.34641 14.49411,22.0505 0.42923,-1.86802 0.80617,-3.76737 1.12683,-5.70043 -5.92286,-3.04527 -9.9647,-9.2057 -9.9647,-16.35007 0,-7.14437 4.04184,-13.3048 9.9647,-16.35007 -0.31994,-1.93038 -0.69862,-3.83489 -1.12683,-5.70043 z m 19.08982,0 c -0.42821,1.86554 -0.80689,3.77005 -1.12683,5.70043 5.92286,3.04527 9.9647,9.2057 9.9647,16.35007 0,7.14437 -4.04184,13.3048 -9.9647,16.35007 0.32066,1.93306 0.6976,3.83241 1.12683,5.70043 8.5167,-3.70409 14.49411,-12.19552 14.49411,-22.0505 0,-9.85498 -5.97741,-18.34641 -14.49411,-22.0505 z"
       inkscape:connector-curvature="0"
       sodipodi:nodetypes="sscscscccscscsscsccsccccsccsccsccsccccsccsccsccsccccsccsc" />
    <g
       id="g4061"
       transform="matrix(0.41946376,0,0,0.41946376,101.49476,673.87025)"
       style="stroke-width:2.38399618;stroke-miterlimit:4;stroke-dasharray:none">
      <path
         id="rect4033"
         d="m 299.5,717.375 c -2.5274,0.25514 -4.5,2.40313 -4.5,5 l 0,115 c 0,2.77 2.23,5 5,5 l 65,0 c 2.77,0 5,-2.23 5,-5 l 0,-105 -15,-15 -55,0 c -0.17313,0 -0.33151,-0.017 -0.5,0 z"
         style="fill:#e6e6e6;fill-opacity:1;fill-rule:evenodd;stroke:#000000;stroke-width:2.38399618;stroke-linecap:round;stroke-linejoin:round;stroke-miterlimit:4;stroke-opacity:1;stroke-dasharray:none"
         inkscape:connector-curvature="0" />
      <path
         sodipodi:nodetypes="cccccccccccccccsssssssss"
         inkscape:connector-curvature="0"
         d="m 347,801.36218 -44,0 m 32,0 0,25.5 m 0,-61.5 0,26 m -20,10 0,25.5 m 0,-61.5 0,26 32,0 m -22,10 0,25.5 m 0,-61.5 0,26 m -17,-26 34,0 c 2.77,0 5,2.23 5,5 l 0,51.5 c 0,2.77 -2.23,5 -5,5 l -34,0 c -2.77,0 -5,-2.23 -5,-5 l 0,-51.5 c 0,-2.77 2.23,-5 5,-5 z"
         style="fill:none;stroke:#000000;stroke-width:2.38399618;stroke-linecap:butt;stroke-linejoin:miter;stroke-miterlimit:4;stroke-opacity:1;stroke-dasharray:none"
         id="path4056" />
    </g>
    <text
       xml:space="preserve"
       style="font-size:20px;font-style:normal;font-variant:normal;font-weight:normal;font-stretch:normal;line-height:125%;letter-spacing:0px;word-spacing:0px;fill:#000000;fill-opacity:1;stroke:none;font-family:Atavyros;-inkscape-font-specification:Atavyros"
       x="40"
       y="1002.3622"
       id="text4065"
       sodipodi:linespacing="125%"><tspan
         id="tspan4067"
         sodipodi:role="line"
         x="40"
         y="1002.3622"
         style="font-size:18px;font-style:normal;font-variant:normal;font-weight:normal;font-stretch:normal;font-family:Droid Sans;-inkscape-font-specification:Droid Sans">unused drawings</tspan></text>
    <path
       id="sim"
       style="font-size:medium;font-style:normal;font-variant:normal;font-weight:normal;font-stretch:normal;text-indent:0;text-align:start;text-decoration:none;line-height:normal;letter-spacing:normal;word-spacing:normal;text-transform:none;direction:ltr;block-progression:tb;writing-mode:lr-tb;text-anchor:start;baseline-shift:baseline;color:#000000;fill:#e6e6e6;fill-opacity:1;stroke:#000000;stroke-width:1;marker:none;display:inline;enable-background:accumulate;font-family:Sans;-inkscape-font-specification:Sans;fill-rule:evenodd;stroke-miterlimit:4;stroke-dasharray:none"
       d="m 321.03125,697.4375 c -3.07966,0 -5.59375,2.54533 -5.59375,5.625 l 0,42.28125 c 0,3.07967 2.51408,5.59375 5.59375,5.59375 l 27.90625,0 c 3.07967,0 5.625,-2.51409 5.625,-5.59375 l 0,-42.28125 c 0,-3.07967 -2.54534,-5.625 -5.625,-5.625 l -27.90625,0 z m 0,3 4.25,0 0,19.84375 0,1.5 1.5,0 24.78125,0 0,5.21875 -33.125,0 0,-23.9375 c 0,-1.46957 1.12419,-2.625 2.59375,-2.625 z m 7.25,0 5.21875,0 0,18.34375 -5.21875,0 0,-18.34375 z m 8.21875,0 5.21875,0 0,18.34375 -5.21875,0 0,-18.34375 z m 8.21875,0 4.21875,0 c 1.46956,0 2.625,1.15543 2.625,2.625 l 0,15.71875 -6.84375,0 0,-18.34375 z M 318.4375,730 l 6.84375,0 0,17.9375 -4.25,0 c -1.46955,0 -2.59375,-1.1242 -2.59375,-2.59375 l 0,-15.34375 z m 9.84375,0 5.21875,0 0,17.9375 -5.21875,0 0,-17.9375 z m 8.21875,0 5.21875,0 0,17.9375 -5.21875,0 0,-17.9375 z m 8.21875,0 6.84375,0 0,15.34375 c 0,1.46956 -1.15545,2.59375 -2.625,2.59375 l -4.21875,0 0,-17.9375 z m -30.6658,-70.46226 c -2.0754,0.20951 -3.69522,1.97336 -3.69522,4.1058 l 0,94.43338 c 0,2.27461 1.83119,4.1058 4.1058,4.1058 l 53.37539,0 c 2.27461,0 4.1058,-1.83119 4.1058,-4.1058 l 0,-86.22178 -12.3174,-12.3174 -45.16379,0 c -0.14217,0 -0.27222,-0.014 -0.41058,0 z" />
    <text
       xml:space="preserve"
       style="font-size:20px;font-style:normal;font-variant:normal;font-weight:normal;font-stretch:normal;line-height:125%;letter-spacing:0px;word-spacing:0px;fill:#000000;fill-opacity:1;stroke:none;font-family:Atavyros;-inkscape-font-specification:Atavyros"
       x="34.090904"
       y="718.07745"
       id="text4085"
       sodipodi:linespacing="125%"><tspan
         id="tspan4087"
         sodipodi:role="line"
         x="34.090904"
         y="718.07745"
         style="font-size:18px;font-style:normal;font-variant:normal;font-weight:normal;font-stretch:normal;font-family:Droid Sans;-inkscape-font-specification:Droid Sans">sim</tspan></text>
    <path
       sodipodi:type="star"
       style="fill:#e6e6e6;fill-opacity:1;fill-rule:evenodd;stroke:#000000;stroke-width:1;stroke-linecap:round;stroke-linejoin:round;stroke-miterlimit:4;stroke-opacity:1;stroke-dasharray:none"
       id="triangle"
       sodipodi:sides="3"
       sodipodi:cx="350"
       sodipodi:cy="272.36218"
       sodipodi:r1="50"
       sodipodi:r2="25"
       sodipodi:arg1="-1.5707963"
       sodipodi:arg2="-0.52359878"
       inkscape:flatsided="true"
       inkscape:rounded="0"
       inkscape:randomized="0"
       d="m 350,222.36218 43.30127,75 -86.60254,0 z"
       inkscape:transform-center-y="-12.5" />
    <path
       inkscape:transform-center-y="-12.5"
       d="m 350,222.36218 47.55283,34.54915 -18.16357,55.9017 -58.77852,0 -18.16357,-55.9017 z"
       inkscape:randomized="0"
       inkscape:rounded="0"
       inkscape:flatsided="true"
       sodipodi:arg2="-0.94247777"
       sodipodi:arg1="-1.5707963"
       sodipodi:r2="25"
       sodipodi:r1="50"
       sodipodi:cy="272.36218"
       sodipodi:cx="350"
       sodipodi:sides="5"
       id="pentagon"
       style="fill:#e6e6e6;fill-opacity:1;fill-rule:evenodd;stroke:#000000;stroke-width:1;stroke-linecap:round;stroke-linejoin:round;stroke-miterlimit:4;stroke-opacity:1;stroke-dasharray:none"
       sodipodi:type="star"
       transform="translate(120,0)" />
    <path
       transform="translate(240,0)"
       sodipodi:type="star"
       style="fill:#e6e6e6;fill-opacity:1;fill-rule:evenodd;stroke:#000000;stroke-width:1;stroke-linecap:round;stroke-linejoin:round;stroke-miterlimit:4;stroke-opacity:1;stroke-dasharray:none"
       id="star"
       sodipodi:sides="4"
       sodipodi:cx="350"
       sodipodi:cy="272.36218"
       sodipodi:r1="50"
       sodipodi:r2="25"
       sodipodi:arg1="-1.5707963"
       sodipodi:arg2="-0.78539814"
       inkscape:flatsided="false"
       inkscape:rounded="0"
       inkscape:randomized="0"
       d="M 350,222.36218 367.67767,254.68451 400,272.36218 367.67767,290.03985 350,322.36218 332.32233,290.03985 300,272.36218 332.32233,254.68451 z"
       inkscape:transform-center-y="-12.5" />
    <path
       d="m 350,222.36218 43.30127,25 0,50 -43.30127,25 -43.30127,-25 0,-50 z"
       inkscape:randomized="0"
       inkscape:rounded="0"
       inkscape:flatsided="true"
       sodipodi:arg2="-1.0471975"
       sodipodi:arg1="-1.5707963"
       sodipodi:r2="25"
       sodipodi:r1="50"
       sodipodi:cy="272.36218"
       sodipodi:cx="350"
       sodipodi:sides="6"
       id="hexagon"
       style="fill:#e6e6e6;fill-opacity:1;fill-rule:evenodd;stroke:#000000;stroke-width:1.08306897;stroke-linecap:round;stroke-linejoin:round;stroke-miterlimit:4;stroke-opacity:1;stroke-dasharray:none"
       sodipodi:type="star"
       transform="matrix(0,0.92330219,-0.92330219,0,843.0571,-165.92003)"
       inkscape:transform-center-x="-11.541277" />
  </g>
</svg>
